<mxfile host="app.diagrams.net" modified="2024-04-20T23:45:41.471Z" agent="Mozilla/5.0 (Windows NT 10.0; Win64; x64) AppleWebKit/537.36 (KHTML, like Gecko) Chrome/123.0.0.0 Safari/537.36" etag="FvQ9HnvubkUjHfB6_BhI" version="24.2.5" type="device">
  <diagram name="Page-1" id="ozAskFoAoxSLJqg7TgyL">
    <mxGraphModel dx="3060" dy="2810" grid="1" gridSize="10" guides="1" tooltips="1" connect="1" arrows="1" fold="1" page="1" pageScale="1" pageWidth="850" pageHeight="1100" math="0" shadow="0">
      <root>
        <mxCell id="0" />
        <mxCell id="1" parent="0" />
        <mxCell id="hSej_JAxDf8bF2lORwO1-246" value="" style="rounded=0;whiteSpace=wrap;html=1;strokeColor=none;" parent="1" vertex="1">
          <mxGeometry x="-160" y="-180" width="2250" height="2880" as="geometry" />
        </mxCell>
        <mxCell id="hSej_JAxDf8bF2lORwO1-244" value="" style="rounded=0;whiteSpace=wrap;html=1;fillColor=none;strokeColor=#1A1A1A;dashed=1;rotation=-90;" parent="1" vertex="1">
          <mxGeometry x="5" y="1175" width="652.5" height="365" as="geometry" />
        </mxCell>
        <mxCell id="hSej_JAxDf8bF2lORwO1-243" value="" style="rounded=0;whiteSpace=wrap;html=1;fillColor=none;strokeColor=#1A1A1A;dashed=1;rotation=-90;" parent="1" vertex="1">
          <mxGeometry x="571.25" y="1147.5" width="652.5" height="435" as="geometry" />
        </mxCell>
        <mxCell id="hSej_JAxDf8bF2lORwO1-85" value="" style="rounded=0;whiteSpace=wrap;html=1;fillColor=none;strokeColor=#1A1A1A;dashed=1;" parent="1" vertex="1">
          <mxGeometry x="610" y="22.5" width="1380" height="247.5" as="geometry" />
        </mxCell>
        <mxCell id="hSej_JAxDf8bF2lORwO1-88" value="" style="rounded=0;whiteSpace=wrap;html=1;fillColor=none;strokeColor=#1A1A1A;dashed=1;" parent="1" vertex="1">
          <mxGeometry x="600" y="470" width="1380" height="237.5" as="geometry" />
        </mxCell>
        <mxCell id="hSej_JAxDf8bF2lORwO1-1" value="" style="ellipse;html=1;shape=startState;fillColor=#000000;strokeColor=#000000;" parent="1" vertex="1">
          <mxGeometry x="90" y="50" width="30" height="30" as="geometry" />
        </mxCell>
        <mxCell id="hSej_JAxDf8bF2lORwO1-2" value="" style="edgeStyle=orthogonalEdgeStyle;html=1;verticalAlign=bottom;endArrow=open;endSize=8;strokeColor=#000000;rounded=0;entryX=0.5;entryY=0;entryDx=0;entryDy=0;" parent="1" source="hSej_JAxDf8bF2lORwO1-1" target="hSej_JAxDf8bF2lORwO1-3" edge="1">
          <mxGeometry relative="1" as="geometry">
            <mxPoint x="105" y="140" as="targetPoint" />
          </mxGeometry>
        </mxCell>
        <mxCell id="hSej_JAxDf8bF2lORwO1-5" value="" style="edgeStyle=orthogonalEdgeStyle;rounded=0;orthogonalLoop=1;jettySize=auto;html=1;" parent="1" source="hSej_JAxDf8bF2lORwO1-3" target="hSej_JAxDf8bF2lORwO1-4" edge="1">
          <mxGeometry relative="1" as="geometry" />
        </mxCell>
        <mxCell id="hSej_JAxDf8bF2lORwO1-8" value="TRUE" style="edgeLabel;html=1;align=center;verticalAlign=middle;resizable=0;points=[];" parent="hSej_JAxDf8bF2lORwO1-5" vertex="1" connectable="0">
          <mxGeometry x="-0.1771" y="1" relative="1" as="geometry">
            <mxPoint as="offset" />
          </mxGeometry>
        </mxCell>
        <mxCell id="hSej_JAxDf8bF2lORwO1-78" style="edgeStyle=orthogonalEdgeStyle;rounded=0;orthogonalLoop=1;jettySize=auto;html=1;entryX=0;entryY=0.5;entryDx=0;entryDy=0;" parent="1" source="hSej_JAxDf8bF2lORwO1-3" target="hSej_JAxDf8bF2lORwO1-77" edge="1">
          <mxGeometry relative="1" as="geometry" />
        </mxCell>
        <mxCell id="hSej_JAxDf8bF2lORwO1-81" value="FALSE" style="edgeLabel;html=1;align=center;verticalAlign=middle;resizable=0;points=[];" parent="hSej_JAxDf8bF2lORwO1-78" vertex="1" connectable="0">
          <mxGeometry x="-0.1171" relative="1" as="geometry">
            <mxPoint as="offset" />
          </mxGeometry>
        </mxCell>
        <mxCell id="hSej_JAxDf8bF2lORwO1-3" value="&lt;font face=&quot;Helvetica&quot; style=&quot;font-size: 11px;&quot;&gt;Weight &amp;lt; 35 lbs&lt;/font&gt;" style="rhombus;whiteSpace=wrap;html=1;strokeColor=#A9C4EB;fillColor=#A9C4EB;" parent="1" vertex="1">
          <mxGeometry x="52.5" y="150" width="105" height="80" as="geometry" />
        </mxCell>
        <mxCell id="hSej_JAxDf8bF2lORwO1-7" value="" style="edgeStyle=orthogonalEdgeStyle;rounded=0;orthogonalLoop=1;jettySize=auto;html=1;" parent="1" source="hSej_JAxDf8bF2lORwO1-4" target="hSej_JAxDf8bF2lORwO1-6" edge="1">
          <mxGeometry relative="1" as="geometry" />
        </mxCell>
        <mxCell id="hSej_JAxDf8bF2lORwO1-9" value="TRUE" style="edgeLabel;html=1;align=center;verticalAlign=middle;resizable=0;points=[];" parent="hSej_JAxDf8bF2lORwO1-7" vertex="1" connectable="0">
          <mxGeometry x="-0.2108" y="-1" relative="1" as="geometry">
            <mxPoint as="offset" />
          </mxGeometry>
        </mxCell>
        <mxCell id="hSej_JAxDf8bF2lORwO1-90" value="" style="edgeStyle=orthogonalEdgeStyle;rounded=0;orthogonalLoop=1;jettySize=auto;html=1;" parent="1" source="hSej_JAxDf8bF2lORwO1-4" target="hSej_JAxDf8bF2lORwO1-89" edge="1">
          <mxGeometry relative="1" as="geometry" />
        </mxCell>
        <mxCell id="hSej_JAxDf8bF2lORwO1-91" value="FALSE" style="edgeLabel;html=1;align=center;verticalAlign=middle;resizable=0;points=[];" parent="hSej_JAxDf8bF2lORwO1-90" vertex="1" connectable="0">
          <mxGeometry x="-0.0953" relative="1" as="geometry">
            <mxPoint as="offset" />
          </mxGeometry>
        </mxCell>
        <mxCell id="hSej_JAxDf8bF2lORwO1-4" value="&lt;span style=&quot;font-size: 11px;&quot;&gt;Stored Vertically&lt;/span&gt;" style="rhombus;whiteSpace=wrap;html=1;strokeColor=#A9C4EB;fillColor=#A9C4EB;" parent="1" vertex="1">
          <mxGeometry x="52.5" y="300" width="105" height="80" as="geometry" />
        </mxCell>
        <mxCell id="hSej_JAxDf8bF2lORwO1-11" value="" style="edgeStyle=orthogonalEdgeStyle;rounded=0;orthogonalLoop=1;jettySize=auto;html=1;" parent="1" source="hSej_JAxDf8bF2lORwO1-6" target="hSej_JAxDf8bF2lORwO1-10" edge="1">
          <mxGeometry relative="1" as="geometry" />
        </mxCell>
        <mxCell id="hSej_JAxDf8bF2lORwO1-12" value="TRUE" style="edgeLabel;html=1;align=center;verticalAlign=middle;resizable=0;points=[];" parent="hSej_JAxDf8bF2lORwO1-11" vertex="1" connectable="0">
          <mxGeometry x="-0.2358" y="-1" relative="1" as="geometry">
            <mxPoint as="offset" />
          </mxGeometry>
        </mxCell>
        <mxCell id="hSej_JAxDf8bF2lORwO1-79" style="edgeStyle=orthogonalEdgeStyle;rounded=0;orthogonalLoop=1;jettySize=auto;html=1;entryX=0.25;entryY=1;entryDx=0;entryDy=0;" parent="1" source="hSej_JAxDf8bF2lORwO1-6" target="hSej_JAxDf8bF2lORwO1-77" edge="1">
          <mxGeometry relative="1" as="geometry" />
        </mxCell>
        <mxCell id="hSej_JAxDf8bF2lORwO1-82" value="FALSE" style="edgeLabel;html=1;align=center;verticalAlign=middle;resizable=0;points=[];" parent="hSej_JAxDf8bF2lORwO1-79" vertex="1" connectable="0">
          <mxGeometry x="-0.6798" relative="1" as="geometry">
            <mxPoint as="offset" />
          </mxGeometry>
        </mxCell>
        <mxCell id="hSej_JAxDf8bF2lORwO1-6" value="&lt;span style=&quot;font-size: 11px;&quot;&gt;Height &amp;lt; 4.75 in&lt;/span&gt;" style="rhombus;whiteSpace=wrap;html=1;strokeColor=#A9C4EB;fillColor=#A9C4EB;" parent="1" vertex="1">
          <mxGeometry x="237.5" y="300" width="105" height="80" as="geometry" />
        </mxCell>
        <mxCell id="hSej_JAxDf8bF2lORwO1-14" value="" style="edgeStyle=orthogonalEdgeStyle;rounded=0;orthogonalLoop=1;jettySize=auto;html=1;" parent="1" source="hSej_JAxDf8bF2lORwO1-10" target="hSej_JAxDf8bF2lORwO1-13" edge="1">
          <mxGeometry relative="1" as="geometry" />
        </mxCell>
        <mxCell id="hSej_JAxDf8bF2lORwO1-43" value="TRUE" style="edgeLabel;html=1;align=center;verticalAlign=middle;resizable=0;points=[];" parent="hSej_JAxDf8bF2lORwO1-14" vertex="1" connectable="0">
          <mxGeometry x="-0.0771" y="-1" relative="1" as="geometry">
            <mxPoint x="-1" as="offset" />
          </mxGeometry>
        </mxCell>
        <mxCell id="hSej_JAxDf8bF2lORwO1-80" style="edgeStyle=orthogonalEdgeStyle;rounded=0;orthogonalLoop=1;jettySize=auto;html=1;entryX=1;entryY=0.5;entryDx=0;entryDy=0;" parent="1" source="hSej_JAxDf8bF2lORwO1-10" target="hSej_JAxDf8bF2lORwO1-77" edge="1">
          <mxGeometry relative="1" as="geometry" />
        </mxCell>
        <mxCell id="hSej_JAxDf8bF2lORwO1-83" value="FALSE" style="edgeLabel;html=1;align=center;verticalAlign=middle;resizable=0;points=[];" parent="hSej_JAxDf8bF2lORwO1-80" vertex="1" connectable="0">
          <mxGeometry x="-0.5514" relative="1" as="geometry">
            <mxPoint as="offset" />
          </mxGeometry>
        </mxCell>
        <mxCell id="hSej_JAxDf8bF2lORwO1-10" value="&lt;span style=&quot;font-size: 11px;&quot;&gt;Max of Length &amp;amp; Width &amp;lt; 12 in&lt;/span&gt;" style="rhombus;whiteSpace=wrap;html=1;strokeColor=#A9C4EB;fillColor=#A9C4EB;" parent="1" vertex="1">
          <mxGeometry x="425" y="295" width="105" height="90" as="geometry" />
        </mxCell>
        <mxCell id="hSej_JAxDf8bF2lORwO1-18" value="" style="edgeStyle=orthogonalEdgeStyle;rounded=0;orthogonalLoop=1;jettySize=auto;html=1;" parent="1" source="hSej_JAxDf8bF2lORwO1-13" target="hSej_JAxDf8bF2lORwO1-17" edge="1">
          <mxGeometry relative="1" as="geometry" />
        </mxCell>
        <mxCell id="hSej_JAxDf8bF2lORwO1-42" value="TRUE" style="edgeLabel;html=1;align=center;verticalAlign=middle;resizable=0;points=[];" parent="hSej_JAxDf8bF2lORwO1-18" vertex="1" connectable="0">
          <mxGeometry x="0.1216" relative="1" as="geometry">
            <mxPoint as="offset" />
          </mxGeometry>
        </mxCell>
        <mxCell id="hSej_JAxDf8bF2lORwO1-67" style="edgeStyle=orthogonalEdgeStyle;rounded=0;orthogonalLoop=1;jettySize=auto;html=1;exitX=0.5;exitY=1;exitDx=0;exitDy=0;entryX=0.5;entryY=0;entryDx=0;entryDy=0;" parent="1" source="hSej_JAxDf8bF2lORwO1-13" target="hSej_JAxDf8bF2lORwO1-46" edge="1">
          <mxGeometry relative="1" as="geometry" />
        </mxCell>
        <mxCell id="hSej_JAxDf8bF2lORwO1-70" value="FALSE" style="edgeLabel;html=1;align=center;verticalAlign=middle;resizable=0;points=[];" parent="hSej_JAxDf8bF2lORwO1-67" vertex="1" connectable="0">
          <mxGeometry x="-0.1827" y="-1" relative="1" as="geometry">
            <mxPoint as="offset" />
          </mxGeometry>
        </mxCell>
        <mxCell id="hSej_JAxDf8bF2lORwO1-13" value="&lt;span style=&quot;font-size: 11px;&quot;&gt;Max of Length &amp;amp; Width &amp;lt; 9.6 in&lt;/span&gt;" style="rhombus;whiteSpace=wrap;html=1;strokeColor=#A9C4EB;fillColor=#A9C4EB;" parent="1" vertex="1">
          <mxGeometry x="610" y="295" width="105" height="90" as="geometry" />
        </mxCell>
        <mxCell id="hSej_JAxDf8bF2lORwO1-20" value="" style="edgeStyle=orthogonalEdgeStyle;rounded=0;orthogonalLoop=1;jettySize=auto;html=1;" parent="1" source="hSej_JAxDf8bF2lORwO1-17" target="hSej_JAxDf8bF2lORwO1-19" edge="1">
          <mxGeometry relative="1" as="geometry" />
        </mxCell>
        <mxCell id="hSej_JAxDf8bF2lORwO1-17" value="i = 0" style="whiteSpace=wrap;html=1;fillColor=#F8CECC;strokeColor=#F8CECC;" parent="1" vertex="1">
          <mxGeometry x="628.75" y="170" width="67.5" height="40" as="geometry" />
        </mxCell>
        <mxCell id="hSej_JAxDf8bF2lORwO1-22" value="" style="edgeStyle=orthogonalEdgeStyle;rounded=0;orthogonalLoop=1;jettySize=auto;html=1;" parent="1" source="hSej_JAxDf8bF2lORwO1-19" target="hSej_JAxDf8bF2lORwO1-21" edge="1">
          <mxGeometry relative="1" as="geometry" />
        </mxCell>
        <mxCell id="hSej_JAxDf8bF2lORwO1-25" value="TRUE" style="edgeLabel;html=1;align=center;verticalAlign=middle;resizable=0;points=[];" parent="hSej_JAxDf8bF2lORwO1-22" vertex="1" connectable="0">
          <mxGeometry x="-0.2273" y="-1" relative="1" as="geometry">
            <mxPoint as="offset" />
          </mxGeometry>
        </mxCell>
        <mxCell id="hSej_JAxDf8bF2lORwO1-72" value="" style="edgeStyle=orthogonalEdgeStyle;rounded=0;orthogonalLoop=1;jettySize=auto;html=1;" parent="1" source="hSej_JAxDf8bF2lORwO1-19" target="hSej_JAxDf8bF2lORwO1-71" edge="1">
          <mxGeometry relative="1" as="geometry" />
        </mxCell>
        <mxCell id="hSej_JAxDf8bF2lORwO1-74" value="FALSE" style="edgeLabel;html=1;align=center;verticalAlign=middle;resizable=0;points=[];" parent="hSej_JAxDf8bF2lORwO1-72" vertex="1" connectable="0">
          <mxGeometry x="-0.0929" relative="1" as="geometry">
            <mxPoint as="offset" />
          </mxGeometry>
        </mxCell>
        <mxCell id="hSej_JAxDf8bF2lORwO1-19" value="i &amp;lt; 7" style="rhombus;whiteSpace=wrap;html=1;fillColor=#F8CECC;strokeColor=#F8CECC;" parent="1" vertex="1">
          <mxGeometry x="770" y="150" width="80" height="80" as="geometry" />
        </mxCell>
        <mxCell id="hSej_JAxDf8bF2lORwO1-24" value="" style="edgeStyle=orthogonalEdgeStyle;rounded=0;orthogonalLoop=1;jettySize=auto;html=1;" parent="1" source="hSej_JAxDf8bF2lORwO1-21" target="hSej_JAxDf8bF2lORwO1-23" edge="1">
          <mxGeometry relative="1" as="geometry" />
        </mxCell>
        <mxCell id="hSej_JAxDf8bF2lORwO1-27" value="TRUE" style="edgeLabel;html=1;align=center;verticalAlign=middle;resizable=0;points=[];" parent="hSej_JAxDf8bF2lORwO1-24" vertex="1" connectable="0">
          <mxGeometry x="-0.0303" y="-1" relative="1" as="geometry">
            <mxPoint as="offset" />
          </mxGeometry>
        </mxCell>
        <mxCell id="hSej_JAxDf8bF2lORwO1-36" style="edgeStyle=orthogonalEdgeStyle;rounded=0;orthogonalLoop=1;jettySize=auto;html=1;exitX=0.5;exitY=0;exitDx=0;exitDy=0;entryX=0.5;entryY=1;entryDx=0;entryDy=0;" parent="1" source="hSej_JAxDf8bF2lORwO1-21" target="hSej_JAxDf8bF2lORwO1-34" edge="1">
          <mxGeometry relative="1" as="geometry" />
        </mxCell>
        <mxCell id="hSej_JAxDf8bF2lORwO1-38" value="FALSE" style="edgeLabel;html=1;align=center;verticalAlign=middle;resizable=0;points=[];" parent="hSej_JAxDf8bF2lORwO1-36" vertex="1" connectable="0">
          <mxGeometry x="-0.1404" relative="1" as="geometry">
            <mxPoint as="offset" />
          </mxGeometry>
        </mxCell>
        <mxCell id="hSej_JAxDf8bF2lORwO1-21" value="&lt;font style=&quot;font-size: 10px;&quot;&gt;Min of Length &amp;amp; Width &amp;lt;&amp;nbsp;&lt;/font&gt;&lt;div&gt;&lt;font style=&quot;font-size: 10px;&quot;&gt;Front Width of Section i&lt;/font&gt;&lt;/div&gt;" style="rhombus;whiteSpace=wrap;html=1;fillColor=#A9C4EB;strokeColor=#A9C4EB;" parent="1" vertex="1">
          <mxGeometry x="930" y="140" width="140" height="100" as="geometry" />
        </mxCell>
        <mxCell id="hSej_JAxDf8bF2lORwO1-29" value="" style="edgeStyle=orthogonalEdgeStyle;rounded=0;orthogonalLoop=1;jettySize=auto;html=1;" parent="1" source="hSej_JAxDf8bF2lORwO1-23" target="hSej_JAxDf8bF2lORwO1-28" edge="1">
          <mxGeometry relative="1" as="geometry" />
        </mxCell>
        <mxCell id="hSej_JAxDf8bF2lORwO1-23" value="&lt;font style=&quot;font-size: 11px;&quot;&gt;Unsuable Percentage =&lt;/font&gt;&lt;div&gt;&lt;font style=&quot;font-size: 11px;&quot;&gt;(9.6 - Max of Length &amp;amp; Width) / 9.6&lt;/font&gt;&lt;/div&gt;" style="whiteSpace=wrap;html=1;fillColor=#F8CECC;strokeColor=#F8CECC;" parent="1" vertex="1">
          <mxGeometry x="1160" y="165" width="200" height="50" as="geometry" />
        </mxCell>
        <mxCell id="hSej_JAxDf8bF2lORwO1-31" value="" style="edgeStyle=orthogonalEdgeStyle;rounded=0;orthogonalLoop=1;jettySize=auto;html=1;" parent="1" source="hSej_JAxDf8bF2lORwO1-28" target="hSej_JAxDf8bF2lORwO1-30" edge="1">
          <mxGeometry relative="1" as="geometry" />
        </mxCell>
        <mxCell id="hSej_JAxDf8bF2lORwO1-28" value="&lt;font style=&quot;font-size: 11px;&quot;&gt;Max Width =&lt;/font&gt;&lt;div&gt;&lt;font style=&quot;font-size: 11px;&quot;&gt;Back Width of Section i +&lt;/font&gt;&lt;/div&gt;&lt;div&gt;&lt;font style=&quot;font-size: 11px;&quot;&gt;(Unusable Percentage * (Front Width - Back Width))&lt;/font&gt;&lt;/div&gt;" style="whiteSpace=wrap;html=1;fillColor=#F8CECC;strokeColor=#F8CECC;" parent="1" vertex="1">
          <mxGeometry x="1440" y="157.5" width="220" height="65" as="geometry" />
        </mxCell>
        <mxCell id="hSej_JAxDf8bF2lORwO1-33" value="" style="edgeStyle=orthogonalEdgeStyle;rounded=0;orthogonalLoop=1;jettySize=auto;html=1;" parent="1" source="hSej_JAxDf8bF2lORwO1-30" target="hSej_JAxDf8bF2lORwO1-32" edge="1">
          <mxGeometry relative="1" as="geometry" />
        </mxCell>
        <mxCell id="hSej_JAxDf8bF2lORwO1-39" value="TRUE" style="edgeLabel;html=1;align=center;verticalAlign=middle;resizable=0;points=[];" parent="hSej_JAxDf8bF2lORwO1-33" vertex="1" connectable="0">
          <mxGeometry x="-0.0639" y="-1" relative="1" as="geometry">
            <mxPoint as="offset" />
          </mxGeometry>
        </mxCell>
        <mxCell id="hSej_JAxDf8bF2lORwO1-35" value="" style="edgeStyle=orthogonalEdgeStyle;rounded=0;orthogonalLoop=1;jettySize=auto;html=1;exitX=0.5;exitY=0;exitDx=0;exitDy=0;entryX=1;entryY=0.5;entryDx=0;entryDy=0;" parent="1" source="hSej_JAxDf8bF2lORwO1-30" target="hSej_JAxDf8bF2lORwO1-34" edge="1">
          <mxGeometry relative="1" as="geometry" />
        </mxCell>
        <mxCell id="hSej_JAxDf8bF2lORwO1-40" value="FALSE" style="edgeLabel;html=1;align=center;verticalAlign=middle;resizable=0;points=[];" parent="hSej_JAxDf8bF2lORwO1-35" vertex="1" connectable="0">
          <mxGeometry x="-0.9168" y="1" relative="1" as="geometry">
            <mxPoint as="offset" />
          </mxGeometry>
        </mxCell>
        <mxCell id="hSej_JAxDf8bF2lORwO1-30" value="&lt;font style=&quot;font-size: 11px;&quot;&gt;Min of Length &amp;amp; Width&amp;nbsp;&lt;/font&gt;&lt;div&gt;&lt;font style=&quot;font-size: 11px;&quot;&gt;&amp;lt; Section i Max Width&lt;/font&gt;&lt;/div&gt;" style="rhombus;whiteSpace=wrap;html=1;fillColor=#F8CECC;strokeColor=#F8CECC;" parent="1" vertex="1">
          <mxGeometry x="1790" y="140" width="150" height="100" as="geometry" />
        </mxCell>
        <mxCell id="hSej_JAxDf8bF2lORwO1-32" value="&lt;b&gt;Item Vendable&lt;/b&gt;" style="whiteSpace=wrap;html=1;fillColor=#E1D5E7;strokeColor=#E1D5E7;" parent="1" vertex="1">
          <mxGeometry x="1805" y="350" width="120" height="40" as="geometry" />
        </mxCell>
        <mxCell id="hSej_JAxDf8bF2lORwO1-41" style="edgeStyle=orthogonalEdgeStyle;rounded=0;orthogonalLoop=1;jettySize=auto;html=1;entryX=0.5;entryY=0;entryDx=0;entryDy=0;" parent="1" source="hSej_JAxDf8bF2lORwO1-34" target="hSej_JAxDf8bF2lORwO1-19" edge="1">
          <mxGeometry relative="1" as="geometry" />
        </mxCell>
        <mxCell id="hSej_JAxDf8bF2lORwO1-34" value="i++" style="whiteSpace=wrap;html=1;fillColor=#F8CECC;strokeColor=#F8CECC;" parent="1" vertex="1">
          <mxGeometry x="940" y="45" width="120" height="35" as="geometry" />
        </mxCell>
        <mxCell id="hSej_JAxDf8bF2lORwO1-45" value="" style="edgeStyle=orthogonalEdgeStyle;rounded=0;orthogonalLoop=1;jettySize=auto;html=1;" parent="1" source="hSej_JAxDf8bF2lORwO1-46" target="hSej_JAxDf8bF2lORwO1-49" edge="1">
          <mxGeometry relative="1" as="geometry" />
        </mxCell>
        <mxCell id="hSej_JAxDf8bF2lORwO1-46" value="i = 7" style="whiteSpace=wrap;html=1;fillColor=#F8CECC;strokeColor=#F8CECC;" parent="1" vertex="1">
          <mxGeometry x="628.75" y="510" width="67.5" height="40" as="geometry" />
        </mxCell>
        <mxCell id="hSej_JAxDf8bF2lORwO1-47" value="" style="edgeStyle=orthogonalEdgeStyle;rounded=0;orthogonalLoop=1;jettySize=auto;html=1;" parent="1" source="hSej_JAxDf8bF2lORwO1-49" target="hSej_JAxDf8bF2lORwO1-54" edge="1">
          <mxGeometry relative="1" as="geometry" />
        </mxCell>
        <mxCell id="hSej_JAxDf8bF2lORwO1-48" value="TRUE" style="edgeLabel;html=1;align=center;verticalAlign=middle;resizable=0;points=[];" parent="hSej_JAxDf8bF2lORwO1-47" vertex="1" connectable="0">
          <mxGeometry x="-0.2273" y="-1" relative="1" as="geometry">
            <mxPoint as="offset" />
          </mxGeometry>
        </mxCell>
        <mxCell id="hSej_JAxDf8bF2lORwO1-73" value="" style="edgeStyle=orthogonalEdgeStyle;rounded=0;orthogonalLoop=1;jettySize=auto;html=1;" parent="1" source="hSej_JAxDf8bF2lORwO1-49" target="hSej_JAxDf8bF2lORwO1-71" edge="1">
          <mxGeometry relative="1" as="geometry" />
        </mxCell>
        <mxCell id="hSej_JAxDf8bF2lORwO1-75" value="FALSE" style="edgeLabel;html=1;align=center;verticalAlign=middle;resizable=0;points=[];" parent="hSej_JAxDf8bF2lORwO1-73" vertex="1" connectable="0">
          <mxGeometry x="-0.2101" relative="1" as="geometry">
            <mxPoint as="offset" />
          </mxGeometry>
        </mxCell>
        <mxCell id="hSej_JAxDf8bF2lORwO1-49" value="i &amp;lt; 10" style="rhombus;whiteSpace=wrap;html=1;fillColor=#F8CECC;strokeColor=#F8CECC;" parent="1" vertex="1">
          <mxGeometry x="770" y="490" width="80" height="80" as="geometry" />
        </mxCell>
        <mxCell id="hSej_JAxDf8bF2lORwO1-50" value="" style="edgeStyle=orthogonalEdgeStyle;rounded=0;orthogonalLoop=1;jettySize=auto;html=1;" parent="1" source="hSej_JAxDf8bF2lORwO1-54" target="hSej_JAxDf8bF2lORwO1-56" edge="1">
          <mxGeometry relative="1" as="geometry" />
        </mxCell>
        <mxCell id="hSej_JAxDf8bF2lORwO1-51" value="TRUE" style="edgeLabel;html=1;align=center;verticalAlign=middle;resizable=0;points=[];" parent="hSej_JAxDf8bF2lORwO1-50" vertex="1" connectable="0">
          <mxGeometry x="-0.0303" y="-1" relative="1" as="geometry">
            <mxPoint as="offset" />
          </mxGeometry>
        </mxCell>
        <mxCell id="hSej_JAxDf8bF2lORwO1-65" style="edgeStyle=orthogonalEdgeStyle;rounded=0;orthogonalLoop=1;jettySize=auto;html=1;entryX=0.5;entryY=0;entryDx=0;entryDy=0;" parent="1" source="hSej_JAxDf8bF2lORwO1-54" target="hSej_JAxDf8bF2lORwO1-63" edge="1">
          <mxGeometry relative="1" as="geometry" />
        </mxCell>
        <mxCell id="hSej_JAxDf8bF2lORwO1-68" value="FALSE" style="edgeLabel;html=1;align=center;verticalAlign=middle;resizable=0;points=[];" parent="hSej_JAxDf8bF2lORwO1-65" vertex="1" connectable="0">
          <mxGeometry x="-0.2229" y="-1" relative="1" as="geometry">
            <mxPoint as="offset" />
          </mxGeometry>
        </mxCell>
        <mxCell id="hSej_JAxDf8bF2lORwO1-54" value="&lt;font style=&quot;font-size: 10px;&quot;&gt;Max of Length &amp;amp; Width &amp;lt;&amp;nbsp;&lt;/font&gt;&lt;div&gt;&lt;font style=&quot;font-size: 10px;&quot;&gt;Front Width of Section i&lt;/font&gt;&lt;/div&gt;" style="rhombus;whiteSpace=wrap;html=1;fillColor=#A9C4EB;strokeColor=#A9C4EB;" parent="1" vertex="1">
          <mxGeometry x="930" y="480" width="140" height="100" as="geometry" />
        </mxCell>
        <mxCell id="hSej_JAxDf8bF2lORwO1-55" value="" style="edgeStyle=orthogonalEdgeStyle;rounded=0;orthogonalLoop=1;jettySize=auto;html=1;" parent="1" source="hSej_JAxDf8bF2lORwO1-56" target="hSej_JAxDf8bF2lORwO1-58" edge="1">
          <mxGeometry relative="1" as="geometry" />
        </mxCell>
        <mxCell id="hSej_JAxDf8bF2lORwO1-56" value="&lt;font style=&quot;font-size: 11px;&quot;&gt;Unsuable Percentage =&lt;/font&gt;&lt;div&gt;&lt;font style=&quot;font-size: 11px;&quot;&gt;(9.6 - Min of Length &amp;amp; Width) / 9.6&lt;/font&gt;&lt;/div&gt;" style="whiteSpace=wrap;html=1;fillColor=#F8CECC;strokeColor=#F8CECC;" parent="1" vertex="1">
          <mxGeometry x="1160" y="505" width="200" height="50" as="geometry" />
        </mxCell>
        <mxCell id="hSej_JAxDf8bF2lORwO1-57" value="" style="edgeStyle=orthogonalEdgeStyle;rounded=0;orthogonalLoop=1;jettySize=auto;html=1;" parent="1" source="hSej_JAxDf8bF2lORwO1-58" target="hSej_JAxDf8bF2lORwO1-61" edge="1">
          <mxGeometry relative="1" as="geometry" />
        </mxCell>
        <mxCell id="hSej_JAxDf8bF2lORwO1-58" value="&lt;font style=&quot;font-size: 11px;&quot;&gt;Max Width =&lt;/font&gt;&lt;div&gt;&lt;font style=&quot;font-size: 11px;&quot;&gt;Back Width of Section i +&lt;/font&gt;&lt;/div&gt;&lt;div&gt;&lt;font style=&quot;font-size: 11px;&quot;&gt;(Unusable Percentage * (Front Width - Back Width))&lt;/font&gt;&lt;/div&gt;" style="whiteSpace=wrap;html=1;fillColor=#F8CECC;strokeColor=#F8CECC;" parent="1" vertex="1">
          <mxGeometry x="1440" y="497.5" width="220" height="65" as="geometry" />
        </mxCell>
        <mxCell id="hSej_JAxDf8bF2lORwO1-59" value="" style="edgeStyle=orthogonalEdgeStyle;rounded=0;orthogonalLoop=1;jettySize=auto;html=1;entryX=1;entryY=0.5;entryDx=0;entryDy=0;exitX=0.5;exitY=1;exitDx=0;exitDy=0;" parent="1" source="hSej_JAxDf8bF2lORwO1-61" target="hSej_JAxDf8bF2lORwO1-63" edge="1">
          <mxGeometry relative="1" as="geometry" />
        </mxCell>
        <mxCell id="hSej_JAxDf8bF2lORwO1-60" value="FALSE" style="edgeLabel;html=1;align=center;verticalAlign=middle;resizable=0;points=[];" parent="hSej_JAxDf8bF2lORwO1-59" vertex="1" connectable="0">
          <mxGeometry x="-0.9168" y="1" relative="1" as="geometry">
            <mxPoint as="offset" />
          </mxGeometry>
        </mxCell>
        <mxCell id="hSej_JAxDf8bF2lORwO1-66" style="edgeStyle=orthogonalEdgeStyle;rounded=0;orthogonalLoop=1;jettySize=auto;html=1;exitX=0.5;exitY=0;exitDx=0;exitDy=0;entryX=0.5;entryY=1;entryDx=0;entryDy=0;" parent="1" source="hSej_JAxDf8bF2lORwO1-61" target="hSej_JAxDf8bF2lORwO1-32" edge="1">
          <mxGeometry relative="1" as="geometry" />
        </mxCell>
        <mxCell id="hSej_JAxDf8bF2lORwO1-69" value="TRUE" style="edgeLabel;html=1;align=center;verticalAlign=middle;resizable=0;points=[];" parent="hSej_JAxDf8bF2lORwO1-66" vertex="1" connectable="0">
          <mxGeometry x="-0.163" y="1" relative="1" as="geometry">
            <mxPoint as="offset" />
          </mxGeometry>
        </mxCell>
        <mxCell id="hSej_JAxDf8bF2lORwO1-61" value="&lt;font style=&quot;font-size: 11px;&quot;&gt;Max of Length &amp;amp; Width&amp;nbsp;&lt;/font&gt;&lt;div&gt;&lt;font style=&quot;font-size: 11px;&quot;&gt;&amp;lt; Section i Max Width&lt;/font&gt;&lt;/div&gt;" style="rhombus;whiteSpace=wrap;html=1;fillColor=#F8CECC;strokeColor=#F8CECC;" parent="1" vertex="1">
          <mxGeometry x="1790" y="480" width="150" height="100" as="geometry" />
        </mxCell>
        <mxCell id="hSej_JAxDf8bF2lORwO1-62" style="edgeStyle=orthogonalEdgeStyle;rounded=0;orthogonalLoop=1;jettySize=auto;html=1;entryX=0.5;entryY=1;entryDx=0;entryDy=0;" parent="1" source="hSej_JAxDf8bF2lORwO1-63" target="hSej_JAxDf8bF2lORwO1-49" edge="1">
          <mxGeometry relative="1" as="geometry" />
        </mxCell>
        <mxCell id="hSej_JAxDf8bF2lORwO1-63" value="i++" style="whiteSpace=wrap;html=1;fillColor=#F8CECC;strokeColor=#F8CECC;" parent="1" vertex="1">
          <mxGeometry x="940" y="660" width="120" height="35" as="geometry" />
        </mxCell>
        <mxCell id="hSej_JAxDf8bF2lORwO1-71" value="&lt;b&gt;Item Not Vendable&lt;/b&gt;" style="whiteSpace=wrap;html=1;fillColor=#E1D5E7;strokeColor=#E1D5E7;" parent="1" vertex="1">
          <mxGeometry x="850" y="350" width="120" height="40" as="geometry" />
        </mxCell>
        <mxCell id="hSej_JAxDf8bF2lORwO1-77" value="&lt;b&gt;Item Not Vendable&lt;/b&gt;" style="whiteSpace=wrap;html=1;fillColor=#E1D5E7;strokeColor=#E1D5E7;" parent="1" vertex="1">
          <mxGeometry x="320" y="170" width="120" height="40" as="geometry" />
        </mxCell>
        <mxCell id="hSej_JAxDf8bF2lORwO1-93" value="" style="edgeStyle=orthogonalEdgeStyle;rounded=0;orthogonalLoop=1;jettySize=auto;html=1;" parent="1" source="hSej_JAxDf8bF2lORwO1-89" target="hSej_JAxDf8bF2lORwO1-92" edge="1">
          <mxGeometry relative="1" as="geometry" />
        </mxCell>
        <mxCell id="hSej_JAxDf8bF2lORwO1-94" value="TRUE" style="edgeLabel;html=1;align=center;verticalAlign=middle;resizable=0;points=[];" parent="hSej_JAxDf8bF2lORwO1-93" vertex="1" connectable="0">
          <mxGeometry x="-0.0917" relative="1" as="geometry">
            <mxPoint as="offset" />
          </mxGeometry>
        </mxCell>
        <mxCell id="hSej_JAxDf8bF2lORwO1-105" style="edgeStyle=orthogonalEdgeStyle;rounded=0;orthogonalLoop=1;jettySize=auto;html=1;entryX=0;entryY=0.5;entryDx=0;entryDy=0;" parent="1" source="hSej_JAxDf8bF2lORwO1-89" target="hSej_JAxDf8bF2lORwO1-104" edge="1">
          <mxGeometry relative="1" as="geometry" />
        </mxCell>
        <mxCell id="hSej_JAxDf8bF2lORwO1-107" value="FALSE" style="edgeLabel;html=1;align=center;verticalAlign=middle;resizable=0;points=[];" parent="hSej_JAxDf8bF2lORwO1-105" vertex="1" connectable="0">
          <mxGeometry x="-0.0303" y="1" relative="1" as="geometry">
            <mxPoint as="offset" />
          </mxGeometry>
        </mxCell>
        <mxCell id="hSej_JAxDf8bF2lORwO1-89" value="&lt;span style=&quot;font-size: 11px;&quot;&gt;Largest Dimension&amp;nbsp;&lt;/span&gt;&lt;div&gt;&lt;span style=&quot;font-size: 11px;&quot;&gt;&amp;lt; 12 in&lt;/span&gt;&lt;/div&gt;" style="rhombus;whiteSpace=wrap;html=1;strokeColor=#A9C4EB;fillColor=#A9C4EB;" parent="1" vertex="1">
          <mxGeometry x="36.25" y="650" width="137.5" height="80" as="geometry" />
        </mxCell>
        <mxCell id="hSej_JAxDf8bF2lORwO1-96" value="" style="edgeStyle=orthogonalEdgeStyle;rounded=0;orthogonalLoop=1;jettySize=auto;html=1;" parent="1" source="hSej_JAxDf8bF2lORwO1-92" target="hSej_JAxDf8bF2lORwO1-95" edge="1">
          <mxGeometry relative="1" as="geometry" />
        </mxCell>
        <mxCell id="hSej_JAxDf8bF2lORwO1-100" value="TRUE" style="edgeLabel;html=1;align=center;verticalAlign=middle;resizable=0;points=[];" parent="hSej_JAxDf8bF2lORwO1-96" vertex="1" connectable="0">
          <mxGeometry x="-0.1259" relative="1" as="geometry">
            <mxPoint as="offset" />
          </mxGeometry>
        </mxCell>
        <mxCell id="hSej_JAxDf8bF2lORwO1-220" value="" style="edgeStyle=orthogonalEdgeStyle;rounded=0;orthogonalLoop=1;jettySize=auto;html=1;" parent="1" source="hSej_JAxDf8bF2lORwO1-92" target="hSej_JAxDf8bF2lORwO1-219" edge="1">
          <mxGeometry relative="1" as="geometry" />
        </mxCell>
        <mxCell id="hSej_JAxDf8bF2lORwO1-230" value="FALSE" style="edgeLabel;html=1;align=center;verticalAlign=middle;resizable=0;points=[];" parent="hSej_JAxDf8bF2lORwO1-220" vertex="1" connectable="0">
          <mxGeometry x="-0.8369" relative="1" as="geometry">
            <mxPoint as="offset" />
          </mxGeometry>
        </mxCell>
        <mxCell id="hSej_JAxDf8bF2lORwO1-92" value="&lt;span style=&quot;font-size: 11px;&quot;&gt;Largest Dimension&amp;nbsp;&lt;/span&gt;&lt;div&gt;&lt;span style=&quot;font-size: 11px;&quot;&gt;&amp;lt; 9.6 in&lt;/span&gt;&lt;/div&gt;" style="rhombus;whiteSpace=wrap;html=1;strokeColor=#A9C4EB;fillColor=#A9C4EB;" parent="1" vertex="1">
          <mxGeometry x="36.25" y="810" width="137.5" height="80" as="geometry" />
        </mxCell>
        <mxCell id="hSej_JAxDf8bF2lORwO1-98" value="" style="edgeStyle=orthogonalEdgeStyle;rounded=0;orthogonalLoop=1;jettySize=auto;html=1;" parent="1" source="hSej_JAxDf8bF2lORwO1-95" target="hSej_JAxDf8bF2lORwO1-97" edge="1">
          <mxGeometry relative="1" as="geometry" />
        </mxCell>
        <mxCell id="hSej_JAxDf8bF2lORwO1-101" value="FALSE" style="edgeLabel;html=1;align=center;verticalAlign=middle;resizable=0;points=[];" parent="hSej_JAxDf8bF2lORwO1-98" vertex="1" connectable="0">
          <mxGeometry x="-0.1833" y="-1" relative="1" as="geometry">
            <mxPoint as="offset" />
          </mxGeometry>
        </mxCell>
        <mxCell id="hSej_JAxDf8bF2lORwO1-103" value="" style="edgeStyle=orthogonalEdgeStyle;rounded=0;orthogonalLoop=1;jettySize=auto;html=1;entryX=0.5;entryY=0;entryDx=0;entryDy=0;" parent="1" source="hSej_JAxDf8bF2lORwO1-95" target="hSej_JAxDf8bF2lORwO1-111" edge="1">
          <mxGeometry relative="1" as="geometry">
            <mxPoint x="388.8333333333335" y="950" as="targetPoint" />
          </mxGeometry>
        </mxCell>
        <mxCell id="hSej_JAxDf8bF2lORwO1-172" value="TRUE" style="edgeLabel;html=1;align=center;verticalAlign=middle;resizable=0;points=[];" parent="hSej_JAxDf8bF2lORwO1-103" vertex="1" connectable="0">
          <mxGeometry x="-0.1276" relative="1" as="geometry">
            <mxPoint as="offset" />
          </mxGeometry>
        </mxCell>
        <mxCell id="hSej_JAxDf8bF2lORwO1-95" value="&lt;span style=&quot;font-size: 11px;&quot;&gt;2nd Largest Dimension&amp;nbsp;&lt;/span&gt;&lt;div&gt;&lt;span style=&quot;font-size: 11px;&quot;&gt;&amp;lt; 4.75 in&lt;/span&gt;&lt;/div&gt;" style="rhombus;whiteSpace=wrap;html=1;strokeColor=#A9C4EB;fillColor=#A9C4EB;" parent="1" vertex="1">
          <mxGeometry x="320" y="800" width="137.5" height="100" as="geometry" />
        </mxCell>
        <mxCell id="hSej_JAxDf8bF2lORwO1-108" style="edgeStyle=orthogonalEdgeStyle;rounded=0;orthogonalLoop=1;jettySize=auto;html=1;entryX=1;entryY=0.5;entryDx=0;entryDy=0;exitX=0.5;exitY=0;exitDx=0;exitDy=0;" parent="1" source="hSej_JAxDf8bF2lORwO1-97" target="hSej_JAxDf8bF2lORwO1-104" edge="1">
          <mxGeometry relative="1" as="geometry">
            <Array as="points">
              <mxPoint x="810" y="780" />
              <mxPoint x="550" y="780" />
              <mxPoint x="550" y="690" />
            </Array>
          </mxGeometry>
        </mxCell>
        <mxCell id="hSej_JAxDf8bF2lORwO1-110" value="FALSE" style="edgeLabel;html=1;align=center;verticalAlign=middle;resizable=0;points=[];" parent="hSej_JAxDf8bF2lORwO1-108" vertex="1" connectable="0">
          <mxGeometry x="-0.6353" y="1" relative="1" as="geometry">
            <mxPoint x="13" y="-1" as="offset" />
          </mxGeometry>
        </mxCell>
        <mxCell id="hSej_JAxDf8bF2lORwO1-97" value="3rd Largest Dimension&lt;div&gt;&amp;nbsp;&amp;lt; 4.75&amp;nbsp; in&lt;/div&gt;" style="rhombus;whiteSpace=wrap;html=1;strokeColor=#A9C4EB;fillColor=#A9C4EB;" parent="1" vertex="1">
          <mxGeometry x="741.25" y="800" width="137.5" height="100" as="geometry" />
        </mxCell>
        <mxCell id="hSej_JAxDf8bF2lORwO1-104" value="&lt;b&gt;Item Not Vendable&lt;/b&gt;" style="whiteSpace=wrap;html=1;fillColor=#E1D5E7;strokeColor=#E1D5E7;" parent="1" vertex="1">
          <mxGeometry x="290" y="670" width="120" height="40" as="geometry" />
        </mxCell>
        <mxCell id="hSej_JAxDf8bF2lORwO1-118" value="" style="edgeStyle=orthogonalEdgeStyle;rounded=0;orthogonalLoop=1;jettySize=auto;html=1;" parent="1" source="hSej_JAxDf8bF2lORwO1-111" target="hSej_JAxDf8bF2lORwO1-112" edge="1">
          <mxGeometry relative="1" as="geometry" />
        </mxCell>
        <mxCell id="hSej_JAxDf8bF2lORwO1-111" value="i = 0" style="whiteSpace=wrap;html=1;fillColor=#F8CECC;strokeColor=#F8CECC;" parent="1" vertex="1">
          <mxGeometry x="355" y="970" width="67.5" height="40" as="geometry" />
        </mxCell>
        <mxCell id="hSej_JAxDf8bF2lORwO1-119" value="" style="edgeStyle=orthogonalEdgeStyle;rounded=0;orthogonalLoop=1;jettySize=auto;html=1;" parent="1" source="hSej_JAxDf8bF2lORwO1-112" target="hSej_JAxDf8bF2lORwO1-113" edge="1">
          <mxGeometry relative="1" as="geometry" />
        </mxCell>
        <mxCell id="hSej_JAxDf8bF2lORwO1-122" value="TRUE" style="edgeLabel;html=1;align=center;verticalAlign=middle;resizable=0;points=[];" parent="hSej_JAxDf8bF2lORwO1-119" vertex="1" connectable="0">
          <mxGeometry x="-0.1682" y="-1" relative="1" as="geometry">
            <mxPoint as="offset" />
          </mxGeometry>
        </mxCell>
        <mxCell id="hSej_JAxDf8bF2lORwO1-177" style="edgeStyle=orthogonalEdgeStyle;rounded=0;orthogonalLoop=1;jettySize=auto;html=1;entryX=0;entryY=0.5;entryDx=0;entryDy=0;" parent="1" source="hSej_JAxDf8bF2lORwO1-112" target="hSej_JAxDf8bF2lORwO1-174" edge="1">
          <mxGeometry relative="1" as="geometry" />
        </mxCell>
        <mxCell id="hSej_JAxDf8bF2lORwO1-178" value="FALSE" style="edgeLabel;html=1;align=center;verticalAlign=middle;resizable=0;points=[];" parent="hSej_JAxDf8bF2lORwO1-177" vertex="1" connectable="0">
          <mxGeometry x="-0.0826" y="-1" relative="1" as="geometry">
            <mxPoint as="offset" />
          </mxGeometry>
        </mxCell>
        <mxCell id="hSej_JAxDf8bF2lORwO1-112" value="i &amp;lt; 4" style="rhombus;whiteSpace=wrap;html=1;fillColor=#F8CECC;strokeColor=#F8CECC;" parent="1" vertex="1">
          <mxGeometry x="348.75" y="1060" width="80" height="80" as="geometry" />
        </mxCell>
        <mxCell id="hSej_JAxDf8bF2lORwO1-120" value="" style="edgeStyle=orthogonalEdgeStyle;rounded=0;orthogonalLoop=1;jettySize=auto;html=1;" parent="1" source="hSej_JAxDf8bF2lORwO1-113" target="hSej_JAxDf8bF2lORwO1-114" edge="1">
          <mxGeometry relative="1" as="geometry" />
        </mxCell>
        <mxCell id="hSej_JAxDf8bF2lORwO1-123" value="TRUE" style="edgeLabel;html=1;align=center;verticalAlign=middle;resizable=0;points=[];" parent="hSej_JAxDf8bF2lORwO1-120" vertex="1" connectable="0">
          <mxGeometry x="-0.3345" relative="1" as="geometry">
            <mxPoint as="offset" />
          </mxGeometry>
        </mxCell>
        <mxCell id="hSej_JAxDf8bF2lORwO1-129" style="edgeStyle=orthogonalEdgeStyle;rounded=0;orthogonalLoop=1;jettySize=auto;html=1;entryX=1;entryY=0.5;entryDx=0;entryDy=0;" parent="1" source="hSej_JAxDf8bF2lORwO1-113" target="hSej_JAxDf8bF2lORwO1-115" edge="1">
          <mxGeometry relative="1" as="geometry" />
        </mxCell>
        <mxCell id="hSej_JAxDf8bF2lORwO1-131" value="FALSE" style="edgeLabel;html=1;align=center;verticalAlign=middle;resizable=0;points=[];" parent="hSej_JAxDf8bF2lORwO1-129" vertex="1" connectable="0">
          <mxGeometry x="-0.6807" relative="1" as="geometry">
            <mxPoint x="-23" as="offset" />
          </mxGeometry>
        </mxCell>
        <mxCell id="hSej_JAxDf8bF2lORwO1-113" value="&lt;font style=&quot;font-size: 10px;&quot;&gt;3rd Largest Dimension &amp;lt;&amp;nbsp;&lt;/font&gt;&lt;div&gt;&lt;font style=&quot;font-size: 10px;&quot;&gt;Front Width of Section i&lt;/font&gt;&lt;/div&gt;" style="rhombus;whiteSpace=wrap;html=1;fillColor=#A9C4EB;strokeColor=#A9C4EB;" parent="1" vertex="1">
          <mxGeometry x="318.75" y="1180" width="140" height="100" as="geometry" />
        </mxCell>
        <mxCell id="hSej_JAxDf8bF2lORwO1-121" style="edgeStyle=orthogonalEdgeStyle;rounded=0;orthogonalLoop=1;jettySize=auto;html=1;entryX=0.5;entryY=0;entryDx=0;entryDy=0;" parent="1" source="hSej_JAxDf8bF2lORwO1-114" target="hSej_JAxDf8bF2lORwO1-116" edge="1">
          <mxGeometry relative="1" as="geometry" />
        </mxCell>
        <mxCell id="hSej_JAxDf8bF2lORwO1-114" value="&lt;font style=&quot;font-size: 11px;&quot;&gt;Unsuable Percentage =&lt;/font&gt;&lt;div&gt;&lt;font style=&quot;font-size: 11px;&quot;&gt;(9.6 - Largest Dimension) / 9.6&lt;/font&gt;&lt;/div&gt;" style="whiteSpace=wrap;html=1;fillColor=#F8CECC;strokeColor=#F8CECC;" parent="1" vertex="1">
          <mxGeometry x="288.75" y="1330" width="200" height="50" as="geometry" />
        </mxCell>
        <mxCell id="hSej_JAxDf8bF2lORwO1-132" style="edgeStyle=orthogonalEdgeStyle;rounded=0;orthogonalLoop=1;jettySize=auto;html=1;exitX=0.5;exitY=0;exitDx=0;exitDy=0;entryX=0;entryY=0.5;entryDx=0;entryDy=0;" parent="1" source="hSej_JAxDf8bF2lORwO1-115" target="hSej_JAxDf8bF2lORwO1-112" edge="1">
          <mxGeometry relative="1" as="geometry" />
        </mxCell>
        <mxCell id="hSej_JAxDf8bF2lORwO1-115" value="i++" style="whiteSpace=wrap;html=1;fillColor=#F8CECC;strokeColor=#F8CECC;" parent="1" vertex="1">
          <mxGeometry x="157.5" y="1212.5" width="60" height="35" as="geometry" />
        </mxCell>
        <mxCell id="hSej_JAxDf8bF2lORwO1-124" style="edgeStyle=orthogonalEdgeStyle;rounded=0;orthogonalLoop=1;jettySize=auto;html=1;entryX=0.5;entryY=0;entryDx=0;entryDy=0;" parent="1" source="hSej_JAxDf8bF2lORwO1-116" target="hSej_JAxDf8bF2lORwO1-117" edge="1">
          <mxGeometry relative="1" as="geometry" />
        </mxCell>
        <mxCell id="hSej_JAxDf8bF2lORwO1-116" value="&lt;font style=&quot;font-size: 11px;&quot;&gt;Max Width =&lt;/font&gt;&lt;div&gt;&lt;font style=&quot;font-size: 11px;&quot;&gt;Back Width of Section i +&lt;/font&gt;&lt;/div&gt;&lt;div&gt;&lt;font style=&quot;font-size: 11px;&quot;&gt;(Unusable Percentage * (Front Width - Back Width))&lt;/font&gt;&lt;/div&gt;" style="whiteSpace=wrap;html=1;fillColor=#F8CECC;strokeColor=#F8CECC;" parent="1" vertex="1">
          <mxGeometry x="280" y="1430" width="220" height="65" as="geometry" />
        </mxCell>
        <mxCell id="hSej_JAxDf8bF2lORwO1-125" style="edgeStyle=orthogonalEdgeStyle;rounded=0;orthogonalLoop=1;jettySize=auto;html=1;entryX=0.5;entryY=1;entryDx=0;entryDy=0;" parent="1" source="hSej_JAxDf8bF2lORwO1-117" target="hSej_JAxDf8bF2lORwO1-115" edge="1">
          <mxGeometry relative="1" as="geometry" />
        </mxCell>
        <mxCell id="hSej_JAxDf8bF2lORwO1-128" value="FALSE" style="edgeLabel;html=1;align=center;verticalAlign=middle;resizable=0;points=[];" parent="hSej_JAxDf8bF2lORwO1-125" vertex="1" connectable="0">
          <mxGeometry x="-0.7985" relative="1" as="geometry">
            <mxPoint as="offset" />
          </mxGeometry>
        </mxCell>
        <mxCell id="hSej_JAxDf8bF2lORwO1-238" style="edgeStyle=orthogonalEdgeStyle;rounded=0;orthogonalLoop=1;jettySize=auto;html=1;entryX=0;entryY=0.5;entryDx=0;entryDy=0;exitX=0.5;exitY=1;exitDx=0;exitDy=0;" parent="1" source="hSej_JAxDf8bF2lORwO1-117" target="hSej_JAxDf8bF2lORwO1-236" edge="1">
          <mxGeometry relative="1" as="geometry" />
        </mxCell>
        <mxCell id="hSej_JAxDf8bF2lORwO1-239" value="TRUE" style="edgeLabel;html=1;align=center;verticalAlign=middle;resizable=0;points=[];" parent="hSej_JAxDf8bF2lORwO1-238" vertex="1" connectable="0">
          <mxGeometry x="-0.7963" y="1" relative="1" as="geometry">
            <mxPoint as="offset" />
          </mxGeometry>
        </mxCell>
        <mxCell id="hSej_JAxDf8bF2lORwO1-117" value="&lt;font style=&quot;font-size: 11px;&quot;&gt;3rd Largest Dimension&amp;nbsp;&lt;/font&gt;&lt;div&gt;&lt;font style=&quot;font-size: 11px;&quot;&gt;&amp;lt; Section i Max Width&lt;/font&gt;&lt;/div&gt;" style="rhombus;whiteSpace=wrap;html=1;fillColor=#F8CECC;strokeColor=#F8CECC;" parent="1" vertex="1">
          <mxGeometry x="315" y="1580" width="150" height="100" as="geometry" />
        </mxCell>
        <mxCell id="hSej_JAxDf8bF2lORwO1-152" value="" style="edgeStyle=orthogonalEdgeStyle;rounded=0;orthogonalLoop=1;jettySize=auto;html=1;" parent="1" source="hSej_JAxDf8bF2lORwO1-153" target="hSej_JAxDf8bF2lORwO1-156" edge="1">
          <mxGeometry relative="1" as="geometry" />
        </mxCell>
        <mxCell id="hSej_JAxDf8bF2lORwO1-153" value="i = 4" style="whiteSpace=wrap;html=1;fillColor=#F8CECC;strokeColor=#F8CECC;" parent="1" vertex="1">
          <mxGeometry x="776.25" y="970" width="67.5" height="40" as="geometry" />
        </mxCell>
        <mxCell id="hSej_JAxDf8bF2lORwO1-154" value="" style="edgeStyle=orthogonalEdgeStyle;rounded=0;orthogonalLoop=1;jettySize=auto;html=1;" parent="1" source="hSej_JAxDf8bF2lORwO1-156" target="hSej_JAxDf8bF2lORwO1-161" edge="1">
          <mxGeometry relative="1" as="geometry" />
        </mxCell>
        <mxCell id="hSej_JAxDf8bF2lORwO1-155" value="TRUE" style="edgeLabel;html=1;align=center;verticalAlign=middle;resizable=0;points=[];" parent="hSej_JAxDf8bF2lORwO1-154" vertex="1" connectable="0">
          <mxGeometry x="-0.1682" y="-1" relative="1" as="geometry">
            <mxPoint as="offset" />
          </mxGeometry>
        </mxCell>
        <mxCell id="hSej_JAxDf8bF2lORwO1-175" style="edgeStyle=orthogonalEdgeStyle;rounded=0;orthogonalLoop=1;jettySize=auto;html=1;entryX=1;entryY=0.5;entryDx=0;entryDy=0;" parent="1" source="hSej_JAxDf8bF2lORwO1-156" target="hSej_JAxDf8bF2lORwO1-174" edge="1">
          <mxGeometry relative="1" as="geometry" />
        </mxCell>
        <mxCell id="hSej_JAxDf8bF2lORwO1-176" value="FALSE" style="edgeLabel;html=1;align=center;verticalAlign=middle;resizable=0;points=[];" parent="hSej_JAxDf8bF2lORwO1-175" vertex="1" connectable="0">
          <mxGeometry x="0.0253" relative="1" as="geometry">
            <mxPoint as="offset" />
          </mxGeometry>
        </mxCell>
        <mxCell id="hSej_JAxDf8bF2lORwO1-156" value="i &amp;lt; 7" style="rhombus;whiteSpace=wrap;html=1;fillColor=#F8CECC;strokeColor=#F8CECC;" parent="1" vertex="1">
          <mxGeometry x="770" y="1060" width="80" height="80" as="geometry" />
        </mxCell>
        <mxCell id="hSej_JAxDf8bF2lORwO1-157" value="" style="edgeStyle=orthogonalEdgeStyle;rounded=0;orthogonalLoop=1;jettySize=auto;html=1;" parent="1" source="hSej_JAxDf8bF2lORwO1-161" target="hSej_JAxDf8bF2lORwO1-163" edge="1">
          <mxGeometry relative="1" as="geometry" />
        </mxCell>
        <mxCell id="hSej_JAxDf8bF2lORwO1-158" value="TRUE" style="edgeLabel;html=1;align=center;verticalAlign=middle;resizable=0;points=[];" parent="hSej_JAxDf8bF2lORwO1-157" vertex="1" connectable="0">
          <mxGeometry x="-0.3345" relative="1" as="geometry">
            <mxPoint as="offset" />
          </mxGeometry>
        </mxCell>
        <mxCell id="hSej_JAxDf8bF2lORwO1-159" style="edgeStyle=orthogonalEdgeStyle;rounded=0;orthogonalLoop=1;jettySize=auto;html=1;entryX=0;entryY=0.5;entryDx=0;entryDy=0;" parent="1" source="hSej_JAxDf8bF2lORwO1-161" target="hSej_JAxDf8bF2lORwO1-165" edge="1">
          <mxGeometry relative="1" as="geometry" />
        </mxCell>
        <mxCell id="hSej_JAxDf8bF2lORwO1-160" value="FALSE" style="edgeLabel;html=1;align=center;verticalAlign=middle;resizable=0;points=[];" parent="hSej_JAxDf8bF2lORwO1-159" vertex="1" connectable="0">
          <mxGeometry x="-0.6807" relative="1" as="geometry">
            <mxPoint x="37" as="offset" />
          </mxGeometry>
        </mxCell>
        <mxCell id="hSej_JAxDf8bF2lORwO1-161" value="&lt;font style=&quot;font-size: 10px;&quot;&gt;2nd Largest Dimension &amp;lt;&amp;nbsp;&lt;/font&gt;&lt;div&gt;&lt;font style=&quot;font-size: 10px;&quot;&gt;Front Width of Section i&lt;/font&gt;&lt;/div&gt;" style="rhombus;whiteSpace=wrap;html=1;fillColor=#A9C4EB;strokeColor=#A9C4EB;" parent="1" vertex="1">
          <mxGeometry x="740" y="1180" width="140" height="100" as="geometry" />
        </mxCell>
        <mxCell id="hSej_JAxDf8bF2lORwO1-162" style="edgeStyle=orthogonalEdgeStyle;rounded=0;orthogonalLoop=1;jettySize=auto;html=1;entryX=0.5;entryY=0;entryDx=0;entryDy=0;" parent="1" source="hSej_JAxDf8bF2lORwO1-163" target="hSej_JAxDf8bF2lORwO1-167" edge="1">
          <mxGeometry relative="1" as="geometry" />
        </mxCell>
        <mxCell id="hSej_JAxDf8bF2lORwO1-163" value="&lt;font style=&quot;font-size: 11px;&quot;&gt;Unsuable Percentage =&lt;/font&gt;&lt;div&gt;&lt;font style=&quot;font-size: 11px;&quot;&gt;(9.6 - Largest Dimension) / 9.6&lt;/font&gt;&lt;/div&gt;" style="whiteSpace=wrap;html=1;fillColor=#F8CECC;strokeColor=#F8CECC;" parent="1" vertex="1">
          <mxGeometry x="710" y="1330" width="200" height="50" as="geometry" />
        </mxCell>
        <mxCell id="hSej_JAxDf8bF2lORwO1-164" style="edgeStyle=orthogonalEdgeStyle;rounded=0;orthogonalLoop=1;jettySize=auto;html=1;exitX=0.5;exitY=0;exitDx=0;exitDy=0;entryX=1;entryY=0.5;entryDx=0;entryDy=0;" parent="1" source="hSej_JAxDf8bF2lORwO1-165" target="hSej_JAxDf8bF2lORwO1-156" edge="1">
          <mxGeometry relative="1" as="geometry">
            <Array as="points">
              <mxPoint x="1047.5" y="1100" />
            </Array>
          </mxGeometry>
        </mxCell>
        <mxCell id="hSej_JAxDf8bF2lORwO1-165" value="i++" style="whiteSpace=wrap;html=1;fillColor=#F8CECC;strokeColor=#F8CECC;" parent="1" vertex="1">
          <mxGeometry x="1017.5" y="1212.5" width="60" height="35" as="geometry" />
        </mxCell>
        <mxCell id="hSej_JAxDf8bF2lORwO1-166" style="edgeStyle=orthogonalEdgeStyle;rounded=0;orthogonalLoop=1;jettySize=auto;html=1;entryX=0.5;entryY=0;entryDx=0;entryDy=0;" parent="1" source="hSej_JAxDf8bF2lORwO1-167" target="hSej_JAxDf8bF2lORwO1-170" edge="1">
          <mxGeometry relative="1" as="geometry" />
        </mxCell>
        <mxCell id="hSej_JAxDf8bF2lORwO1-167" value="&lt;font style=&quot;font-size: 11px;&quot;&gt;Max Width =&lt;/font&gt;&lt;div&gt;&lt;font style=&quot;font-size: 11px;&quot;&gt;Back Width of Section i +&lt;/font&gt;&lt;/div&gt;&lt;div&gt;&lt;font style=&quot;font-size: 11px;&quot;&gt;(Unusable Percentage * (Front Width - Back Width))&lt;/font&gt;&lt;/div&gt;" style="whiteSpace=wrap;html=1;fillColor=#F8CECC;strokeColor=#F8CECC;" parent="1" vertex="1">
          <mxGeometry x="700" y="1430" width="220" height="65" as="geometry" />
        </mxCell>
        <mxCell id="hSej_JAxDf8bF2lORwO1-168" style="edgeStyle=orthogonalEdgeStyle;rounded=0;orthogonalLoop=1;jettySize=auto;html=1;entryX=0.5;entryY=1;entryDx=0;entryDy=0;" parent="1" source="hSej_JAxDf8bF2lORwO1-170" target="hSej_JAxDf8bF2lORwO1-165" edge="1">
          <mxGeometry relative="1" as="geometry" />
        </mxCell>
        <mxCell id="hSej_JAxDf8bF2lORwO1-169" value="FALSE" style="edgeLabel;html=1;align=center;verticalAlign=middle;resizable=0;points=[];" parent="hSej_JAxDf8bF2lORwO1-168" vertex="1" connectable="0">
          <mxGeometry x="-0.7985" relative="1" as="geometry">
            <mxPoint as="offset" />
          </mxGeometry>
        </mxCell>
        <mxCell id="hSej_JAxDf8bF2lORwO1-237" style="edgeStyle=orthogonalEdgeStyle;rounded=0;orthogonalLoop=1;jettySize=auto;html=1;entryX=1;entryY=0.5;entryDx=0;entryDy=0;exitX=0.5;exitY=1;exitDx=0;exitDy=0;" parent="1" source="hSej_JAxDf8bF2lORwO1-170" target="hSej_JAxDf8bF2lORwO1-236" edge="1">
          <mxGeometry relative="1" as="geometry" />
        </mxCell>
        <mxCell id="hSej_JAxDf8bF2lORwO1-240" value="TRUE" style="edgeLabel;html=1;align=center;verticalAlign=middle;resizable=0;points=[];" parent="hSej_JAxDf8bF2lORwO1-237" vertex="1" connectable="0">
          <mxGeometry x="-0.789" y="-1" relative="1" as="geometry">
            <mxPoint as="offset" />
          </mxGeometry>
        </mxCell>
        <mxCell id="hSej_JAxDf8bF2lORwO1-170" value="&lt;font style=&quot;font-size: 11px;&quot;&gt;2nd Largest Dimension&amp;nbsp;&lt;/font&gt;&lt;div&gt;&lt;font style=&quot;font-size: 11px;&quot;&gt;&amp;lt; Section i Max Width&lt;/font&gt;&lt;/div&gt;" style="rhombus;whiteSpace=wrap;html=1;fillColor=#F8CECC;strokeColor=#F8CECC;" parent="1" vertex="1">
          <mxGeometry x="735" y="1580" width="150" height="100" as="geometry" />
        </mxCell>
        <mxCell id="hSej_JAxDf8bF2lORwO1-174" value="&lt;b&gt;Item Not Vendable&lt;/b&gt;" style="whiteSpace=wrap;html=1;fillColor=#E1D5E7;strokeColor=#E1D5E7;" parent="1" vertex="1">
          <mxGeometry x="540" y="1080" width="120" height="40" as="geometry" />
        </mxCell>
        <mxCell id="hSej_JAxDf8bF2lORwO1-199" value="" style="edgeStyle=orthogonalEdgeStyle;rounded=0;orthogonalLoop=1;jettySize=auto;html=1;" parent="1" source="hSej_JAxDf8bF2lORwO1-200" target="hSej_JAxDf8bF2lORwO1-204" edge="1">
          <mxGeometry relative="1" as="geometry" />
        </mxCell>
        <mxCell id="hSej_JAxDf8bF2lORwO1-200" value="i = 7" style="whiteSpace=wrap;html=1;fillColor=#F8CECC;strokeColor=#F8CECC;" parent="1" vertex="1">
          <mxGeometry x="61.25" y="2010" width="67.5" height="40" as="geometry" />
        </mxCell>
        <mxCell id="hSej_JAxDf8bF2lORwO1-201" value="" style="edgeStyle=orthogonalEdgeStyle;rounded=0;orthogonalLoop=1;jettySize=auto;html=1;" parent="1" source="hSej_JAxDf8bF2lORwO1-204" target="hSej_JAxDf8bF2lORwO1-209" edge="1">
          <mxGeometry relative="1" as="geometry" />
        </mxCell>
        <mxCell id="hSej_JAxDf8bF2lORwO1-202" value="TRUE" style="edgeLabel;html=1;align=center;verticalAlign=middle;resizable=0;points=[];" parent="hSej_JAxDf8bF2lORwO1-201" vertex="1" connectable="0">
          <mxGeometry x="-0.1682" y="-1" relative="1" as="geometry">
            <mxPoint x="14" y="-1" as="offset" />
          </mxGeometry>
        </mxCell>
        <mxCell id="hSej_JAxDf8bF2lORwO1-233" style="edgeStyle=orthogonalEdgeStyle;rounded=0;orthogonalLoop=1;jettySize=auto;html=1;exitX=0.5;exitY=0;exitDx=0;exitDy=0;entryX=0.5;entryY=1;entryDx=0;entryDy=0;" parent="1" source="hSej_JAxDf8bF2lORwO1-204" target="hSej_JAxDf8bF2lORwO1-227" edge="1">
          <mxGeometry relative="1" as="geometry" />
        </mxCell>
        <mxCell id="hSej_JAxDf8bF2lORwO1-234" value="FALSE" style="edgeLabel;html=1;align=center;verticalAlign=middle;resizable=0;points=[];" parent="hSej_JAxDf8bF2lORwO1-233" vertex="1" connectable="0">
          <mxGeometry x="-0.7201" relative="1" as="geometry">
            <mxPoint as="offset" />
          </mxGeometry>
        </mxCell>
        <mxCell id="hSej_JAxDf8bF2lORwO1-204" value="i &amp;lt; 10" style="rhombus;whiteSpace=wrap;html=1;fillColor=#F8CECC;strokeColor=#F8CECC;" parent="1" vertex="1">
          <mxGeometry x="208.75" y="1990" width="80" height="80" as="geometry" />
        </mxCell>
        <mxCell id="hSej_JAxDf8bF2lORwO1-205" value="" style="edgeStyle=orthogonalEdgeStyle;rounded=0;orthogonalLoop=1;jettySize=auto;html=1;" parent="1" source="hSej_JAxDf8bF2lORwO1-209" target="hSej_JAxDf8bF2lORwO1-211" edge="1">
          <mxGeometry relative="1" as="geometry" />
        </mxCell>
        <mxCell id="hSej_JAxDf8bF2lORwO1-206" value="TRUE" style="edgeLabel;html=1;align=center;verticalAlign=middle;resizable=0;points=[];" parent="hSej_JAxDf8bF2lORwO1-205" vertex="1" connectable="0">
          <mxGeometry x="-0.3345" relative="1" as="geometry">
            <mxPoint as="offset" />
          </mxGeometry>
        </mxCell>
        <mxCell id="hSej_JAxDf8bF2lORwO1-207" style="edgeStyle=orthogonalEdgeStyle;rounded=0;orthogonalLoop=1;jettySize=auto;html=1;entryX=0.5;entryY=0;entryDx=0;entryDy=0;" parent="1" source="hSej_JAxDf8bF2lORwO1-209" target="hSej_JAxDf8bF2lORwO1-213" edge="1">
          <mxGeometry relative="1" as="geometry" />
        </mxCell>
        <mxCell id="hSej_JAxDf8bF2lORwO1-208" value="FALSE" style="edgeLabel;html=1;align=center;verticalAlign=middle;resizable=0;points=[];" parent="hSej_JAxDf8bF2lORwO1-207" vertex="1" connectable="0">
          <mxGeometry x="-0.6807" relative="1" as="geometry">
            <mxPoint y="15" as="offset" />
          </mxGeometry>
        </mxCell>
        <mxCell id="hSej_JAxDf8bF2lORwO1-209" value="&lt;font style=&quot;font-size: 10px;&quot;&gt;Largest Dimension &amp;lt;&amp;nbsp;&lt;/font&gt;&lt;div&gt;&lt;font style=&quot;font-size: 10px;&quot;&gt;Front Width of Section i&lt;/font&gt;&lt;/div&gt;" style="rhombus;whiteSpace=wrap;html=1;fillColor=#A9C4EB;strokeColor=#A9C4EB;" parent="1" vertex="1">
          <mxGeometry x="410" y="1980" width="140" height="100" as="geometry" />
        </mxCell>
        <mxCell id="hSej_JAxDf8bF2lORwO1-210" style="edgeStyle=orthogonalEdgeStyle;rounded=0;orthogonalLoop=1;jettySize=auto;html=1;entryX=0;entryY=0.5;entryDx=0;entryDy=0;" parent="1" source="hSej_JAxDf8bF2lORwO1-211" target="hSej_JAxDf8bF2lORwO1-215" edge="1">
          <mxGeometry relative="1" as="geometry" />
        </mxCell>
        <mxCell id="hSej_JAxDf8bF2lORwO1-211" value="&lt;font style=&quot;font-size: 11px;&quot;&gt;Unsuable Percentage =&lt;/font&gt;&lt;div&gt;&lt;font style=&quot;font-size: 11px;&quot;&gt;(9.6 - 2nd Largest Dimension) / 9.6&lt;/font&gt;&lt;/div&gt;" style="whiteSpace=wrap;html=1;fillColor=#F8CECC;strokeColor=#F8CECC;" parent="1" vertex="1">
          <mxGeometry x="660" y="2005" width="200" height="50" as="geometry" />
        </mxCell>
        <mxCell id="hSej_JAxDf8bF2lORwO1-212" style="edgeStyle=orthogonalEdgeStyle;rounded=0;orthogonalLoop=1;jettySize=auto;html=1;exitX=0;exitY=0.5;exitDx=0;exitDy=0;entryX=0.5;entryY=1;entryDx=0;entryDy=0;" parent="1" source="hSej_JAxDf8bF2lORwO1-213" target="hSej_JAxDf8bF2lORwO1-204" edge="1">
          <mxGeometry relative="1" as="geometry" />
        </mxCell>
        <mxCell id="hSej_JAxDf8bF2lORwO1-213" value="i++" style="whiteSpace=wrap;html=1;fillColor=#F8CECC;strokeColor=#F8CECC;" parent="1" vertex="1">
          <mxGeometry x="450" y="2140" width="60" height="35" as="geometry" />
        </mxCell>
        <mxCell id="hSej_JAxDf8bF2lORwO1-214" style="edgeStyle=orthogonalEdgeStyle;rounded=0;orthogonalLoop=1;jettySize=auto;html=1;entryX=0;entryY=0.5;entryDx=0;entryDy=0;" parent="1" source="hSej_JAxDf8bF2lORwO1-215" target="hSej_JAxDf8bF2lORwO1-218" edge="1">
          <mxGeometry relative="1" as="geometry" />
        </mxCell>
        <mxCell id="hSej_JAxDf8bF2lORwO1-215" value="&lt;font style=&quot;font-size: 11px;&quot;&gt;Max Width =&lt;/font&gt;&lt;div&gt;&lt;font style=&quot;font-size: 11px;&quot;&gt;Back Width of Section i +&lt;/font&gt;&lt;/div&gt;&lt;div&gt;&lt;font style=&quot;font-size: 11px;&quot;&gt;(Unusable Percentage * (Front Width - Back Width))&lt;/font&gt;&lt;/div&gt;" style="whiteSpace=wrap;html=1;fillColor=#F8CECC;strokeColor=#F8CECC;" parent="1" vertex="1">
          <mxGeometry x="920" y="1997.5" width="220" height="65" as="geometry" />
        </mxCell>
        <mxCell id="hSej_JAxDf8bF2lORwO1-216" style="edgeStyle=orthogonalEdgeStyle;rounded=0;orthogonalLoop=1;jettySize=auto;html=1;entryX=1;entryY=0.5;entryDx=0;entryDy=0;exitX=0.5;exitY=1;exitDx=0;exitDy=0;" parent="1" source="hSej_JAxDf8bF2lORwO1-218" target="hSej_JAxDf8bF2lORwO1-213" edge="1">
          <mxGeometry relative="1" as="geometry">
            <Array as="points">
              <mxPoint x="1285" y="2158" />
            </Array>
          </mxGeometry>
        </mxCell>
        <mxCell id="hSej_JAxDf8bF2lORwO1-217" value="FALSE" style="edgeLabel;html=1;align=center;verticalAlign=middle;resizable=0;points=[];" parent="hSej_JAxDf8bF2lORwO1-216" vertex="1" connectable="0">
          <mxGeometry x="-0.7985" relative="1" as="geometry">
            <mxPoint x="9" y="-48" as="offset" />
          </mxGeometry>
        </mxCell>
        <mxCell id="hSej_JAxDf8bF2lORwO1-241" style="edgeStyle=orthogonalEdgeStyle;rounded=0;orthogonalLoop=1;jettySize=auto;html=1;entryX=0.5;entryY=1;entryDx=0;entryDy=0;exitX=0.5;exitY=0;exitDx=0;exitDy=0;" parent="1" source="hSej_JAxDf8bF2lORwO1-218" target="hSej_JAxDf8bF2lORwO1-236" edge="1">
          <mxGeometry relative="1" as="geometry" />
        </mxCell>
        <mxCell id="hSej_JAxDf8bF2lORwO1-242" value="TRUE" style="edgeLabel;html=1;align=center;verticalAlign=middle;resizable=0;points=[];" parent="hSej_JAxDf8bF2lORwO1-241" vertex="1" connectable="0">
          <mxGeometry x="-0.9254" y="1" relative="1" as="geometry">
            <mxPoint as="offset" />
          </mxGeometry>
        </mxCell>
        <mxCell id="hSej_JAxDf8bF2lORwO1-218" value="&lt;font style=&quot;font-size: 11px;&quot;&gt;Largest Dimension&amp;nbsp;&lt;/font&gt;&lt;div&gt;&lt;font style=&quot;font-size: 11px;&quot;&gt;&amp;lt; Section i Max Width&lt;/font&gt;&lt;/div&gt;" style="rhombus;whiteSpace=wrap;html=1;fillColor=#F8CECC;strokeColor=#F8CECC;" parent="1" vertex="1">
          <mxGeometry x="1210" y="1980" width="150" height="100" as="geometry" />
        </mxCell>
        <mxCell id="hSej_JAxDf8bF2lORwO1-223" value="" style="edgeStyle=orthogonalEdgeStyle;rounded=0;orthogonalLoop=1;jettySize=auto;html=1;" parent="1" source="hSej_JAxDf8bF2lORwO1-219" target="hSej_JAxDf8bF2lORwO1-222" edge="1">
          <mxGeometry relative="1" as="geometry" />
        </mxCell>
        <mxCell id="hSej_JAxDf8bF2lORwO1-231" value="TRUE" style="edgeLabel;html=1;align=center;verticalAlign=middle;resizable=0;points=[];" parent="hSej_JAxDf8bF2lORwO1-223" vertex="1" connectable="0">
          <mxGeometry x="-0.1231" relative="1" as="geometry">
            <mxPoint as="offset" />
          </mxGeometry>
        </mxCell>
        <mxCell id="hSej_JAxDf8bF2lORwO1-228" style="edgeStyle=orthogonalEdgeStyle;rounded=0;orthogonalLoop=1;jettySize=auto;html=1;entryX=0.5;entryY=0;entryDx=0;entryDy=0;" parent="1" source="hSej_JAxDf8bF2lORwO1-219" target="hSej_JAxDf8bF2lORwO1-227" edge="1">
          <mxGeometry relative="1" as="geometry" />
        </mxCell>
        <mxCell id="hSej_JAxDf8bF2lORwO1-219" value="&lt;span style=&quot;font-size: 11px;&quot;&gt;2nd Largest Dimension&amp;nbsp;&lt;/span&gt;&lt;div&gt;&lt;span style=&quot;font-size: 11px;&quot;&gt;&amp;lt; 9.6 in&lt;/span&gt;&lt;/div&gt;" style="rhombus;whiteSpace=wrap;html=1;strokeColor=#A9C4EB;fillColor=#A9C4EB;" parent="1" vertex="1">
          <mxGeometry x="20" y="1700" width="150" height="80" as="geometry" />
        </mxCell>
        <mxCell id="hSej_JAxDf8bF2lORwO1-226" style="edgeStyle=orthogonalEdgeStyle;rounded=0;orthogonalLoop=1;jettySize=auto;html=1;exitX=0.5;exitY=1;exitDx=0;exitDy=0;entryX=0.5;entryY=0;entryDx=0;entryDy=0;" parent="1" source="hSej_JAxDf8bF2lORwO1-222" target="hSej_JAxDf8bF2lORwO1-200" edge="1">
          <mxGeometry relative="1" as="geometry">
            <mxPoint x="95" y="1970" as="sourcePoint" />
          </mxGeometry>
        </mxCell>
        <mxCell id="hSej_JAxDf8bF2lORwO1-232" value="TRUE" style="edgeLabel;html=1;align=center;verticalAlign=middle;resizable=0;points=[];" parent="hSej_JAxDf8bF2lORwO1-226" vertex="1" connectable="0">
          <mxGeometry x="-0.1077" relative="1" as="geometry">
            <mxPoint as="offset" />
          </mxGeometry>
        </mxCell>
        <mxCell id="hSej_JAxDf8bF2lORwO1-229" style="edgeStyle=orthogonalEdgeStyle;rounded=0;orthogonalLoop=1;jettySize=auto;html=1;entryX=0;entryY=0.5;entryDx=0;entryDy=0;" parent="1" source="hSej_JAxDf8bF2lORwO1-222" target="hSej_JAxDf8bF2lORwO1-227" edge="1">
          <mxGeometry relative="1" as="geometry" />
        </mxCell>
        <mxCell id="hSej_JAxDf8bF2lORwO1-222" value="&lt;span style=&quot;font-size: 11px;&quot;&gt;3rd Largest Dimension&amp;nbsp;&lt;/span&gt;&lt;div&gt;&lt;span style=&quot;font-size: 11px;&quot;&gt;&amp;lt; 4.75 in&lt;/span&gt;&lt;/div&gt;" style="rhombus;whiteSpace=wrap;html=1;strokeColor=#A9C4EB;fillColor=#A9C4EB;" parent="1" vertex="1">
          <mxGeometry x="20" y="1840" width="150" height="80" as="geometry" />
        </mxCell>
        <mxCell id="hSej_JAxDf8bF2lORwO1-227" value="&lt;b&gt;Item Not Vendable&lt;/b&gt;" style="whiteSpace=wrap;html=1;fillColor=#E1D5E7;strokeColor=#E1D5E7;" parent="1" vertex="1">
          <mxGeometry x="237.5" y="1780" width="120" height="40" as="geometry" />
        </mxCell>
        <mxCell id="hSej_JAxDf8bF2lORwO1-236" value="&lt;b&gt;Item Vendable&lt;/b&gt;" style="whiteSpace=wrap;html=1;fillColor=#E1D5E7;strokeColor=#E1D5E7;" parent="1" vertex="1">
          <mxGeometry x="540" y="1760" width="120" height="40" as="geometry" />
        </mxCell>
        <mxCell id="hSej_JAxDf8bF2lORwO1-245" value="" style="rounded=0;whiteSpace=wrap;html=1;fillColor=none;strokeColor=#1A1A1A;dashed=1;rotation=0;" parent="1" vertex="1">
          <mxGeometry x="180" y="1920" width="1200" height="290" as="geometry" />
        </mxCell>
        <mxCell id="DhrQ_RnnoAZa67zleAFJ-3" value="" style="endArrow=none;dashed=1;html=1;rounded=0;" parent="1" edge="1">
          <mxGeometry width="50" height="50" relative="1" as="geometry">
            <mxPoint x="-40" y="2220" as="sourcePoint" />
            <mxPoint x="-40" y="-10" as="targetPoint" />
          </mxGeometry>
        </mxCell>
        <mxCell id="DhrQ_RnnoAZa67zleAFJ-4" value="&lt;font style=&quot;font-size: 24px;&quot;&gt;&lt;b&gt;Carousel Vendibility&lt;/b&gt;&lt;/font&gt;" style="text;html=1;align=center;verticalAlign=middle;whiteSpace=wrap;rounded=0;" parent="1" vertex="1">
          <mxGeometry x="810" y="-90" width="330" height="30" as="geometry" />
        </mxCell>
        <mxCell id="DhrQ_RnnoAZa67zleAFJ-5" value="&lt;font style=&quot;font-size: 24px;&quot;&gt;&lt;b&gt;isCarouselVendable&lt;/b&gt;&lt;/font&gt;" style="text;html=1;align=center;verticalAlign=middle;whiteSpace=wrap;rounded=0;rotation=-90;" parent="1" vertex="1">
          <mxGeometry x="-277.5" y="1100" width="330" height="30" as="geometry" />
        </mxCell>
        <mxCell id="DhrQ_RnnoAZa67zleAFJ-9" value="&lt;b&gt;Returns ((Item Weight * Current Capacity) &amp;gt; 35 ? Math.floor(35 / Item Weight) : Current Capacity&amp;nbsp;&lt;/b&gt;" style="whiteSpace=wrap;html=1;fillColor=#E1D5E7;strokeColor=#E1D5E7;" parent="1" vertex="1">
          <mxGeometry x="726.25" y="2410" width="323.75" height="70" as="geometry" />
        </mxCell>
        <mxCell id="DhrQ_RnnoAZa67zleAFJ-13" style="edgeStyle=orthogonalEdgeStyle;rounded=0;orthogonalLoop=1;jettySize=auto;html=1;entryX=0;entryY=0.5;entryDx=0;entryDy=0;" parent="1" source="DhrQ_RnnoAZa67zleAFJ-11" target="DhrQ_RnnoAZa67zleAFJ-12" edge="1">
          <mxGeometry relative="1" as="geometry" />
        </mxCell>
        <mxCell id="DhrQ_RnnoAZa67zleAFJ-11" value="Num of Slots =&amp;nbsp;sectionWidths[minimumSection][0]" style="rounded=0;whiteSpace=wrap;html=1;strokeColor=#F8CECC;fillColor=#F8CECC;" parent="1" vertex="1">
          <mxGeometry x="120" y="2415" width="195" height="60" as="geometry" />
        </mxCell>
        <mxCell id="DhrQ_RnnoAZa67zleAFJ-14" style="edgeStyle=orthogonalEdgeStyle;rounded=0;orthogonalLoop=1;jettySize=auto;html=1;exitX=1;exitY=0.5;exitDx=0;exitDy=0;entryX=0;entryY=0.5;entryDx=0;entryDy=0;" parent="1" source="DhrQ_RnnoAZa67zleAFJ-12" target="DhrQ_RnnoAZa67zleAFJ-9" edge="1">
          <mxGeometry relative="1" as="geometry" />
        </mxCell>
        <mxCell id="DhrQ_RnnoAZa67zleAFJ-12" value="Current Capacity = Math.floor(56 / Num of Slots)" style="rounded=0;whiteSpace=wrap;html=1;strokeColor=#F8CECC;fillColor=#F8CECC;" parent="1" vertex="1">
          <mxGeometry x="427.5" y="2415" width="200" height="60" as="geometry" />
        </mxCell>
        <mxCell id="DhrQ_RnnoAZa67zleAFJ-15" value="" style="endArrow=none;dashed=1;html=1;rounded=0;" parent="1" edge="1">
          <mxGeometry width="50" height="50" relative="1" as="geometry">
            <mxPoint x="-40" y="2560" as="sourcePoint" />
            <mxPoint x="-40" y="2290" as="targetPoint" />
          </mxGeometry>
        </mxCell>
        <mxCell id="DhrQ_RnnoAZa67zleAFJ-16" value="&lt;font style=&quot;font-size: 24px;&quot;&gt;&lt;b&gt;Carousel Calculation&lt;/b&gt;&lt;/font&gt;" style="text;html=1;align=center;verticalAlign=middle;whiteSpace=wrap;rounded=0;rotation=-90;" parent="1" vertex="1">
          <mxGeometry x="-277.5" y="2415" width="330" height="30" as="geometry" />
        </mxCell>
        <mxCell id="DhrQ_RnnoAZa67zleAFJ-17" value="Based on whether the item is stored vertically or not can determine the orientation of the item placement." style="rounded=0;whiteSpace=wrap;html=1;" parent="1" vertex="1">
          <mxGeometry x="-88.75" y="420" width="150" height="130" as="geometry" />
        </mxCell>
        <mxCell id="DhrQ_RnnoAZa67zleAFJ-20" value="In this for loop, the algorithm determined that the Maximum will be used as length and the Minimum will be used as width. It then checks sections 1 - 7 to see if they fit, since the Maximum is smaller than section 8." style="rounded=0;whiteSpace=wrap;html=1;" parent="1" vertex="1">
          <mxGeometry x="425" y="45" width="312.5" height="60" as="geometry" />
        </mxCell>
        <mxCell id="DhrQ_RnnoAZa67zleAFJ-21" value="In this for loop, the algorithm determined that the Minimum will be used as length and the Maximum will be used as width. It then checks sections 8-10 to see if they fit, since the Maximum is greater than/ equal to section 8." style="rounded=0;whiteSpace=wrap;html=1;" parent="1" vertex="1">
          <mxGeometry x="440" y="580" width="312.5" height="60" as="geometry" />
        </mxCell>
        <mxCell id="DhrQ_RnnoAZa67zleAFJ-22" value="Once an item is determined to be vendable, it will call the carousel calculation function. In this function, it determines the number of slots the item can fit into, and adjusts for the weight limit." style="rounded=0;whiteSpace=wrap;html=1;" parent="1" vertex="1">
          <mxGeometry x="112.5" y="2500" width="150" height="130" as="geometry" />
        </mxCell>
        <mxCell id="DhrQ_RnnoAZa67zleAFJ-23" value="In this for loop, the algorithm determined that the smallest two dimensions are less than the size of section 4. Thus, the algorithm searches for the minimum section it can fit into from sections 1 - 4." style="rounded=0;whiteSpace=wrap;html=1;" parent="1" vertex="1">
          <mxGeometry x="157.5" y="910" width="172.5" height="160" as="geometry" />
        </mxCell>
        <mxCell id="DhrQ_RnnoAZa67zleAFJ-24" value="In this for loop, the algorithm determined that only the smallest dimension is less than section 4 dimensions, so it must be used as the height. However, the rest of the dimensions are smaller than section 8 dimensions. Thus, the algorithm checks for the minimum section in sections 5-7." style="rounded=0;whiteSpace=wrap;html=1;" parent="1" vertex="1">
          <mxGeometry x="913.75" y="920" width="172.5" height="160" as="geometry" />
        </mxCell>
        <mxCell id="DhrQ_RnnoAZa67zleAFJ-25" value="In this for loop, the algorithm determined that the largest dimension is greater than/equal to both the radius and section 8, so it checks for the minimum size in section 8 -10." style="rounded=0;whiteSpace=wrap;html=1;" parent="1" vertex="1">
          <mxGeometry x="330" y="1870" width="241" height="87.5" as="geometry" />
        </mxCell>
        <mxCell id="DhrQ_RnnoAZa67zleAFJ-30" value="" style="whiteSpace=wrap;html=1;fillColor=#F8CECC;strokeColor=#F8CECC;" parent="1" vertex="1">
          <mxGeometry x="173.75" y="-110" width="67.5" height="40" as="geometry" />
        </mxCell>
        <mxCell id="DhrQ_RnnoAZa67zleAFJ-31" value="" style="whiteSpace=wrap;html=1;fillColor=#A9C4EB;strokeColor=#A9C4EB;" parent="1" vertex="1">
          <mxGeometry x="173.75" y="-50" width="67.5" height="40" as="geometry" />
        </mxCell>
        <mxCell id="DhrQ_RnnoAZa67zleAFJ-32" value="Based on Provided Data" style="text;html=1;align=center;verticalAlign=middle;whiteSpace=wrap;rounded=0;" parent="1" vertex="1">
          <mxGeometry x="262.5" y="-45" width="147.5" height="30" as="geometry" />
        </mxCell>
        <mxCell id="DhrQ_RnnoAZa67zleAFJ-33" value="Based on Calculated Data" style="text;html=1;align=center;verticalAlign=middle;whiteSpace=wrap;rounded=0;" parent="1" vertex="1">
          <mxGeometry x="262.5" y="-100" width="147.5" height="30" as="geometry" />
        </mxCell>
      </root>
    </mxGraphModel>
  </diagram>
</mxfile>
